<svg width="13" height="14" viewBox="0 0 13 14" fill="none" xmlns="http://www.w3.org/2000/svg">
<path d="M5 1C4.72396 1 4.48828 1.09766 4.29297 1.29297C4.09766 1.48828 4 1.72396 4 2V9L2.82031 7.42188C2.60677 7.14062 2.32812 7 1.98438 7C1.71354 7 1.48177 7.09896 1.28906 7.29688C1.09635 7.49479 1 7.72917 1 8C1 8.22396 1.06771 8.42448 1.20312 8.60156L4.20312 12.6016C4.40104 12.8672 4.66667 13 5 13H10.6094C10.724 13 10.8268 12.9648 10.918 12.8945C11.0091 12.8242 11.0677 12.7344 11.0938 12.625L11.8125 9.75C11.9375 9.25 12 8.74479 12 8.23438V6.53906C12 6.32552 11.9271 6.14062 11.7812 5.98438C11.6354 5.82812 11.4583 5.75 11.25 5.75C11.0417 5.75 10.8646 5.82292 10.7188 5.96875C10.5729 6.11458 10.5 6.29167 10.5 6.5H10.25V6.02344C10.25 5.77344 10.1667 5.5612 10 5.38672C9.83333 5.21224 9.625 5.125 9.375 5.125C9.13542 5.125 8.92969 5.21094 8.75781 5.38281C8.58594 5.55469 8.5 5.76042 8.5 6V6.5H8.25V5.79688C8.25 5.51042 8.15365 5.26432 7.96094 5.05859C7.76823 4.85286 7.53125 4.75 7.25 4.75C6.97396 4.75 6.73828 4.84766 6.54297 5.04297C6.34766 5.23828 6.25 5.47396 6.25 5.75V6.5H6V2.04688C6 1.76042 5.90365 1.51432 5.71094 1.30859C5.51823 1.10286 5.28125 1 5 1ZM5 0C5.55729 0 6.02995 0.201823 6.41797 0.605469C6.80599 1.00911 7 1.48958 7 2.04688V3.76562C7.11458 3.75521 7.19792 3.75 7.25 3.75C7.76562 3.75 8.21615 3.92969 8.60156 4.28906C8.84635 4.17969 9.10417 4.125 9.375 4.125C9.96354 4.125 10.4427 4.35156 10.8125 4.80469C10.9531 4.76823 11.099 4.75 11.25 4.75C11.7396 4.75 12.1536 4.92578 12.4922 5.27734C12.8307 5.62891 13 6.04948 13 6.53906V8.23438C13 8.83854 12.9271 9.42448 12.7812 9.99219L12.0625 12.8672C11.9792 13.2005 11.8021 13.4727 11.5312 13.6836C11.2604 13.8945 10.9531 14 10.6094 14H5C4.6875 14 4.38932 13.9284 4.10547 13.7852C3.82161 13.6419 3.58594 13.4479 3.39844 13.2031L0.398438 9.20312C0.132812 8.84896 0 8.44792 0 8C0 7.45312 0.19401 6.98307 0.582031 6.58984C0.970052 6.19661 1.4375 6 1.98438 6C2.35417 6 2.69271 6.09115 3 6.27344V2C3 1.44792 3.19531 0.976562 3.58594 0.585938C3.97656 0.195312 4.44792 0 5 0ZM6 11V8H5.75V11H6ZM8 11V8H7.75V11H8ZM10 11V8H9.75V11H10Z" fill="white"/>
</svg>
